<?xml version="1.0" standalone="no"?>
<!DOCTYPE svg PUBLIC "-//W3C//DTD SVG 20010904//EN"
 "http://www.w3.org/TR/2001/REC-SVG-20010904/DTD/svg10.dtd">
<svg version="1.0" xmlns="http://www.w3.org/2000/svg"
 width="1200.000000pt" height="1200.000000pt" viewBox="0 0 1200.000000 1200.000000"
 preserveAspectRatio="xMidYMid meet">
<metadata>
Created by potrace 1.11, written by Peter Selinger 2001-2013
</metadata>
<g transform="translate(0.000000,1200.000000) scale(0.100000,-0.100000)"
fill="#000000" stroke="none">
<path d="M7030 11304 c-50 -13 -242 -58 -975 -229 -132 -31 -285 -67 -340 -80
-55 -13 -226 -53 -380 -89 -154 -36 -318 -74 -365 -85 -166 -39 -729 -171
-965 -226 -265 -62 -436 -102 -595 -140 -58 -13 -250 -58 -427 -100 -178 -41
-467 -109 -643 -150 -176 -41 -465 -109 -642 -150 -178 -42 -350 -82 -383 -90
-33 -8 -235 -55 -450 -105 -214 -50 -407 -98 -428 -107 -72 -31 -81 -90 -42
-263 15 -70 29 -141 90 -460 13 -69 65 -336 115 -595 50 -258 102 -528 116
-600 14 -71 36 -186 49 -255 13 -69 54 -278 90 -465 36 -187 77 -397 91 -467
13 -71 35 -188 49 -260 14 -73 37 -189 50 -258 13 -69 37 -195 54 -280 16 -85
48 -252 71 -370 23 -118 52 -269 65 -335 13 -66 42 -217 65 -335 22 -118 45
-235 50 -260 5 -25 28 -142 50 -260 22 -118 45 -235 50 -260 5 -25 32 -164 61
-310 28 -146 58 -278 68 -295 15 -28 696 -705 2265 -2253 325 -321 598 -597
607 -614 9 -17 27 -37 40 -44 53 -29 94 -18 545 147 241 88 628 229 859 314
471 172 1000 365 1520 555 508 186 1045 382 1405 513 761 278 1078 393 1265
462 110 40 270 99 355 130 85 31 178 65 205 75 28 11 124 46 215 78 208 75
244 92 260 132 14 33 10 153 -9 310 -5 47 -17 168 -26 270 -8 102 -22 257 -30
345 -8 88 -26 286 -40 440 -31 361 -70 790 -100 1130 -13 149 -43 475 -65 725
-22 250 -44 502 -50 560 -5 58 -21 236 -35 395 -58 649 -89 999 -125 1400 -12
121 -25 274 -30 340 -24 288 -41 452 -51 477 -6 15 -28 37 -48 49 -20 12 -126
74 -236 139 -110 64 -769 451 -1465 860 -1808 1062 -1629 960 -1681 959 -24
-1 -69 -7 -99 -15z m-41 -466 c6 -57 16 -150 21 -208 6 -58 23 -235 40 -395
151 -1476 170 -1669 162 -1677 -4 -3 -353 -105 -777 -227 -423 -121 -1035
-296 -1360 -389 -324 -93 -799 -229 -1054 -303 -384 -110 -466 -131 -482 -121
-10 7 -205 155 -431 329 -227 175 -454 349 -505 388 -610 466 -1663 1280
-1663 1285 0 4 44 18 97 30 94 21 973 227 1333 311 96 23 229 54 295 69 66 16
219 52 340 80 121 28 256 60 300 70 44 11 226 53 405 95 512 120 1159 271
1345 315 94 22 411 96 705 165 611 143 807 189 1040 244 91 22 168 40 171 40
3 1 11 -45 18 -101z m762 -251 c228 -134 689 -405 1024 -602 336 -197 726
-426 867 -509 141 -83 254 -152 250 -153 -4 -1 -299 -86 -657 -188 -357 -103
-882 -253 -1165 -335 -283 -81 -516 -146 -517 -145 -2 1 -16 134 -33 296 -16
162 -43 429 -60 594 -17 165 -35 343 -40 395 -5 52 -16 163 -25 245 -8 83 -20
197 -26 255 -5 58 -16 167 -24 244 -17 157 -16 146 -11 146 2 0 190 -110 417
-243z m-5576 -2456 c1134 -872 1200 -925 1207 -959 4 -21 19 -107 32 -192 28
-170 43 -267 80 -500 14 -85 57 -353 96 -595 39 -242 79 -494 90 -560 11 -66
31 -190 44 -275 14 -85 39 -238 55 -340 17 -102 35 -216 41 -255 6 -38 13 -77
16 -87 4 -12 -10 -21 -63 -38 -74 -24 -376 -120 -738 -235 -126 -40 -324 -103
-440 -140 -515 -164 -708 -225 -722 -227 -18 -3 -16 -12 -83 342 -22 118 -45
235 -50 260 -5 25 -32 164 -60 310 -28 146 -57 297 -65 335 -8 39 -33 167 -55
285 -22 118 -45 235 -50 260 -5 25 -32 164 -60 310 -130 680 -152 790 -165
855 -8 39 -33 167 -55 285 -23 118 -56 294 -75 390 -19 96 -53 272 -75 390
-23 118 -52 269 -65 335 -13 66 -40 206 -60 310 -36 189 -71 371 -120 619 -14
71 -25 138 -25 148 0 14 19 4 83 -45 45 -35 622 -479 1282 -986z m8075 930 c0
-5 11 -130 25 -278 13 -147 36 -398 50 -558 14 -159 37 -411 50 -560 24 -265
60 -675 90 -1010 8 -93 24 -269 35 -390 11 -121 25 -274 30 -340 6 -66 17
-192 25 -280 9 -88 20 -214 25 -280 6 -66 19 -221 30 -345 25 -276 61 -670 95
-1055 14 -159 32 -359 40 -444 8 -85 14 -156 12 -157 -1 -2 -107 75 -234 169
-127 95 -374 278 -548 407 -174 129 -408 303 -519 385 -206 153 -442 329 -761
565 -99 74 -301 224 -450 335 -148 110 -293 217 -322 238 -46 34 -52 42 -57
85 -6 44 -46 432 -66 642 -5 52 -27 273 -49 490 -42 404 -90 878 -137 1353
-15 147 -25 269 -23 271 2 3 200 61 439 130 931 267 1807 519 1855 532 28 7
118 33 200 58 172 50 165 49 165 37z m-2972 -1073 c22 -219 61 -608 122 -1203
17 -165 35 -343 40 -395 28 -291 80 -800 85 -831 4 -32 2 -37 -18 -41 -12 -3
-123 -38 -247 -77 -124 -40 -317 -102 -430 -138 -211 -67 -488 -155 -900 -286
-129 -42 -329 -105 -445 -142 -115 -36 -264 -84 -330 -105 -66 -22 -214 -69
-330 -105 -115 -37 -308 -98 -427 -136 -119 -38 -220 -69 -225 -69 -5 0 -17
51 -27 113 -10 61 -29 177 -42 257 -13 80 -30 188 -38 240 -79 494 -128 796
-181 1125 -8 50 -30 189 -50 310 -72 450 -87 542 -99 615 -7 41 -12 76 -12 77
2 2 380 111 1656 477 509 145 1134 325 1390 399 256 74 470 135 476 136 6 1
18 -84 32 -221z m596 -2915 c101 -76 311 -232 467 -348 156 -115 383 -284 505
-375 201 -149 368 -274 1119 -831 127 -94 319 -236 427 -317 109 -80 196 -147
195 -149 -2 -1 -163 -61 -358 -132 -438 -160 -778 -284 -1194 -436 -176 -65
-367 -134 -425 -155 -58 -21 -197 -72 -310 -113 -260 -95 -764 -279 -1615
-590 -1199 -438 -1627 -594 -1791 -654 l-160 -59 -23 140 c-52 330 -173 1080
-191 1191 -11 66 -28 176 -39 245 -11 69 -38 235 -60 370 -22 135 -53 333 -71
440 -47 295 -77 484 -105 653 -29 179 -28 167 -14 167 11 0 205 61 559 175 74
24 227 73 340 109 191 60 1160 368 1440 458 69 22 265 84 435 138 278 88 495
158 610 195 22 7 48 13 57 14 10 1 100 -61 202 -136z m-3944 -1293 c16 -107
41 -265 55 -350 31 -195 60 -374 130 -810 31 -190 69 -426 85 -525 16 -99 43
-268 60 -375 61 -383 79 -495 86 -530 7 -31 -25 -3 -298 265 -458 450 -1983
1959 -1986 1965 -1 3 44 21 100 39 57 17 249 79 428 136 1379 439 1294 414
1302 396 4 -9 21 -104 38 -211z"/>
</g>
</svg>
